{
    "asset" : {
        "generator" : "Khronos glTF Blender I/O v3.2.43",
        "version" : "2.0"
    },
    "scene" : 0,
    "scenes" : [
        {
            "name" : "Scene",
            "nodes" : [
                0
            ]
        }
    ],
    "nodes" : [
        {
            "mesh" : 0,
            "name" : "zhangzhou_scale"
        }
    ],
    "meshes" : [
        {
            "name" : "zhangzhou_scale.001",
            "primitives" : [
                {
                    "attributes" : {
                        "POSITION" : 0,
                        "NORMAL" : 1
                    },
                    "indices" : 2
                }
            ]
        }
    ],
    "accessors" : [
        {
            "bufferView" : 0,
            "componentType" : 5126,
            "count" : 22595,
            "max" : [
                469.68048095703125,
                80.5300064086914,
                332.0002746582031
            ],
            "min" : [
                -468.5458984375,
                0,
                -332.8298034667969
            ],
            "type" : "VEC3"
        },
        {
            "bufferView" : 1,
            "componentType" : 5126,
            "count" : 22595,
            "type" : "VEC3"
        },
        {
            "bufferView" : 2,
            "componentType" : 5123,
            "count" : 28590,
            "type" : "SCALAR"
        }
    ],
    "bufferViews" : [
        {
            "buffer" : 0,
            "byteLength" : 271140,
            "byteOffset" : 0
        },
        {
            "buffer" : 0,
            "byteLength" : 271140,
            "byteOffset" : 271140
        },
        {
            "buffer" : 0,
            "byteLength" : 57180,
            "byteOffset" : 542280
        }
    ],
    "buffers" : [
        {
            "byteLength" : 599460,
            "uri" : "data:application/octet-stream;base64,"
        }
    ]
}
